<?xml version="1.0" encoding="UTF-8" standalone="no"?>
<!DOCTYPE svg PUBLIC "-//W3C//DTD SVG 1.1//EN" "http://www.w3.org/Graphics/SVG/1.1/DTD/svg11.dtd">
<svg width="100%" height="100%" viewBox="0 0 4121 1128" version="1.1" xmlns="http://www.w3.org/2000/svg" xmlns:xlink="http://www.w3.org/1999/xlink" xml:space="preserve" xmlns:serif="http://www.serif.com/" style="fill-rule:evenodd;clip-rule:evenodd;stroke-linejoin:round;stroke-miterlimit:2;">
    <g transform="matrix(1.12631,0,0,1.12631,-256.228,-72.2954)">
        <g transform="matrix(603.367,0,-139.298,603.367,301.201,565.702)">
            <path d="M0.112,-0.708L0.013,-0L0.278,-0C0.42,-0 0.562,-0.07 0.585,-0.233L0.619,-0.471C0.642,-0.636 0.519,-0.708 0.377,-0.708L0.112,-0.708ZM0.216,-0.168L0.269,-0.541L0.36,-0.541C0.409,-0.541 0.444,-0.51 0.439,-0.471L0.405,-0.233C0.4,-0.195 0.356,-0.168 0.307,-0.168L0.216,-0.168Z" style="fill:rgb(88,101,242);fill-rule:nonzero;"/>
        </g>
        <g transform="matrix(603.367,0,-139.298,603.367,684.339,565.702)">
            <path d="M0.291,-0.708L0.112,-0.708L0.013,-0L0.192,-0L0.291,-0.708Z" style="fill:rgb(88,101,242);fill-rule:nonzero;"/>
        </g>
        <g transform="matrix(603.367,0,-139.298,603.367,859.919,565.702)">
            <path d="M-0.01,-0.118C0.044,-0.033 0.149,0.01 0.234,0.01C0.387,0.01 0.507,-0.059 0.533,-0.197C0.566,-0.373 0.446,-0.42 0.323,-0.443C0.269,-0.455 0.233,-0.473 0.238,-0.514C0.242,-0.55 0.28,-0.567 0.325,-0.566C0.366,-0.565 0.413,-0.549 0.443,-0.515L0.573,-0.605C0.512,-0.694 0.432,-0.718 0.346,-0.718C0.216,-0.718 0.088,-0.667 0.061,-0.522C0.036,-0.388 0.136,-0.299 0.247,-0.281C0.304,-0.273 0.366,-0.254 0.358,-0.21C0.351,-0.173 0.309,-0.156 0.261,-0.156C0.208,-0.156 0.149,-0.179 0.118,-0.224L-0.01,-0.118Z" style="fill:rgb(88,101,242);fill-rule:nonzero;"/>
        </g>
        <g transform="matrix(603.367,0,-139.298,603.367,1203.23,565.702)">
            <path d="M0.405,-0.221C0.381,-0.176 0.335,-0.157 0.294,-0.157C0.244,-0.157 0.2,-0.186 0.207,-0.232L0.241,-0.476C0.248,-0.524 0.299,-0.552 0.35,-0.553C0.392,-0.553 0.434,-0.536 0.45,-0.496L0.604,-0.555C0.565,-0.681 0.465,-0.718 0.378,-0.718C0.236,-0.718 0.084,-0.636 0.062,-0.476L0.028,-0.232C0.006,-0.071 0.134,0.01 0.273,0.01C0.362,0.01 0.464,-0.025 0.551,-0.149L0.405,-0.221Z" style="fill:rgb(88,101,242);fill-rule:nonzero;"/>
        </g>
        <g transform="matrix(603.367,0,-139.298,603.367,1553.19,565.702)">
            <path d="M0.028,-0.233C0.005,-0.071 0.14,0.01 0.287,0.01C0.441,0.01 0.592,-0.071 0.615,-0.233L0.65,-0.475C0.673,-0.637 0.537,-0.718 0.39,-0.718C0.243,-0.718 0.087,-0.638 0.063,-0.475L0.028,-0.233ZM0.242,-0.475C0.25,-0.528 0.313,-0.555 0.371,-0.555C0.429,-0.555 0.479,-0.528 0.471,-0.475L0.436,-0.238C0.428,-0.182 0.365,-0.156 0.307,-0.156C0.253,-0.156 0.2,-0.182 0.207,-0.233L0.242,-0.475Z" style="fill:rgb(88,101,242);fill-rule:nonzero;"/>
        </g>
        <g transform="matrix(603.367,0,-139.298,603.367,1953.82,565.702)">
            <path d="M0.401,-0L0.624,-0L0.454,-0.243C0.551,-0.289 0.607,-0.333 0.625,-0.464C0.645,-0.63 0.541,-0.708 0.395,-0.708L0.112,-0.708L0.013,-0L0.194,-0L0.225,-0.225L0.257,-0.225L0.401,-0ZM0.247,-0.379L0.27,-0.541L0.375,-0.541C0.428,-0.541 0.449,-0.504 0.444,-0.461C0.439,-0.42 0.407,-0.379 0.352,-0.379L0.247,-0.379Z" style="fill:rgb(88,101,242);fill-rule:nonzero;"/>
        </g>
        <g transform="matrix(603.367,0,-139.298,603.367,2341.79,565.702)">
            <path d="M0.112,-0.708L0.013,-0L0.278,-0C0.42,-0 0.562,-0.07 0.585,-0.233L0.619,-0.471C0.642,-0.636 0.519,-0.708 0.377,-0.708L0.112,-0.708ZM0.216,-0.168L0.269,-0.541L0.36,-0.541C0.409,-0.541 0.444,-0.51 0.439,-0.471L0.405,-0.233C0.4,-0.195 0.356,-0.168 0.307,-0.168L0.216,-0.168Z" style="fill:rgb(88,101,242);fill-rule:nonzero;"/>
        </g>
        <g transform="matrix(603.367,0,-139.298,603.367,2724.93,565.702)">
            <path d="M0.368,-0.375L0.056,-0.375L0.032,-0.205L0.344,-0.205L0.368,-0.375Z" style="fill:rgb(88,101,242);fill-rule:nonzero;"/>
        </g>
        <g transform="matrix(603.367,0,-139.298,603.367,2968.69,565.702)">
            <path d="M0.013,-0L0.192,-0L0.221,-0.207L0.334,-0.207C0.505,-0.207 0.604,-0.319 0.619,-0.453C0.633,-0.581 0.568,-0.708 0.395,-0.708L0.112,-0.708L0.013,-0ZM0.243,-0.366L0.268,-0.541L0.372,-0.541C0.424,-0.541 0.447,-0.505 0.441,-0.458C0.435,-0.41 0.403,-0.365 0.347,-0.366L0.243,-0.366Z" style="fill:rgb(88,101,242);fill-rule:nonzero;"/>
        </g>
        <g transform="matrix(603.367,0,-139.298,603.367,3322.86,565.702)">
            <path d="M0.373,-0L0.412,-0.279L0.72,-0.708L0.51,-0.708L0.346,-0.459L0.254,-0.708L0.046,-0.708L0.233,-0.279L0.194,-0L0.373,-0Z" style="fill:rgb(88,101,242);fill-rule:nonzero;"/>
        </g>
        <g transform="matrix(491.408,0,188.634,491.408,385.113,992.475)">
            <path d="M0.291,-0.708L0.112,-0.708L0.013,-0L0.192,-0L0.291,-0.708Z" style="fill:rgb(88,101,242);fill-rule:nonzero;"/>
        </g>
        <g transform="matrix(491.408,0,188.634,491.408,528.113,992.475)">
            <path d="M0.013,-0L0.192,-0L0.231,-0.283L0.229,-0.42L0.233,-0.421L0.275,-0.279L0.396,-0L0.577,-0L0.676,-0.708L0.498,-0.708L0.453,-0.387L0.455,-0.265L0.451,-0.264L0.411,-0.406L0.282,-0.708L0.112,-0.708L0.013,-0Z" style="fill:rgb(88,101,242);fill-rule:nonzero;"/>
        </g>
        <g transform="matrix(491.408,0,188.634,491.408,860.305,992.475)">
            <path d="M0.608,-0.545L0.632,-0.709L0.069,-0.709L0.045,-0.545L0.236,-0.545L0.161,-0L0.342,-0L0.417,-0.545L0.608,-0.545Z" style="fill:rgb(88,101,242);fill-rule:nonzero;"/>
        </g>
        <g transform="matrix(491.408,0,188.634,491.408,1149.74,992.475)">
            <path d="M0.269,-0.539L0.581,-0.539L0.605,-0.708L0.112,-0.708L0.013,-0L0.506,-0L0.529,-0.169L0.217,-0.169L0.232,-0.275L0.519,-0.275L0.541,-0.434L0.254,-0.434L0.269,-0.539Z" style="fill:rgb(88,101,242);fill-rule:nonzero;"/>
        </g>
        <g transform="matrix(491.408,0,188.634,491.408,1438.69,992.475)">
            <path d="M0.401,-0L0.624,-0L0.454,-0.243C0.551,-0.289 0.607,-0.333 0.625,-0.464C0.645,-0.63 0.541,-0.708 0.395,-0.708L0.112,-0.708L0.013,-0L0.194,-0L0.225,-0.225L0.257,-0.225L0.401,-0ZM0.247,-0.379L0.27,-0.541L0.375,-0.541C0.428,-0.541 0.449,-0.504 0.444,-0.461C0.439,-0.42 0.407,-0.379 0.352,-0.379L0.247,-0.379Z" style="fill:rgb(88,101,242);fill-rule:nonzero;"/>
        </g>
        <g transform="matrix(491.408,0,188.634,491.408,1754.67,992.475)">
            <path d="M0.459,-0.708L0.296,-0.708L-0.05,-0L0.142,-0L0.205,-0.142L0.394,-0.142L0.421,-0L0.613,-0L0.459,-0.708ZM0.268,-0.301L0.346,-0.508L0.353,-0.508L0.374,-0.301L0.268,-0.301Z" style="fill:rgb(88,101,242);fill-rule:nonzero;"/>
        </g>
        <g transform="matrix(491.408,0,188.634,491.408,2061.31,992.475)">
            <path d="M0.405,-0.221C0.381,-0.176 0.335,-0.157 0.294,-0.157C0.244,-0.157 0.2,-0.186 0.207,-0.232L0.241,-0.476C0.248,-0.524 0.299,-0.552 0.35,-0.553C0.392,-0.553 0.434,-0.536 0.45,-0.496L0.604,-0.555C0.565,-0.681 0.465,-0.718 0.378,-0.718C0.236,-0.718 0.084,-0.636 0.062,-0.476L0.028,-0.232C0.006,-0.071 0.134,0.01 0.273,0.01C0.362,0.01 0.464,-0.025 0.551,-0.149L0.405,-0.221Z" style="fill:rgb(88,101,242);fill-rule:nonzero;"/>
        </g>
        <g transform="matrix(491.408,0,188.634,491.408,2346.32,992.475)">
            <path d="M0.608,-0.545L0.632,-0.709L0.069,-0.709L0.045,-0.545L0.236,-0.545L0.161,-0L0.342,-0L0.417,-0.545L0.608,-0.545Z" style="fill:rgb(88,101,242);fill-rule:nonzero;"/>
        </g>
        <g transform="matrix(491.408,0,188.634,491.408,2635.76,992.475)">
            <path d="M0.291,-0.708L0.112,-0.708L0.013,-0L0.192,-0L0.291,-0.708Z" style="fill:rgb(88,101,242);fill-rule:nonzero;"/>
        </g>
        <g transform="matrix(491.408,0,188.634,491.408,2778.76,992.475)">
            <path d="M0.028,-0.233C0.005,-0.071 0.14,0.01 0.287,0.01C0.441,0.01 0.592,-0.071 0.615,-0.233L0.65,-0.475C0.673,-0.637 0.537,-0.718 0.39,-0.718C0.243,-0.718 0.087,-0.638 0.063,-0.475L0.028,-0.233ZM0.242,-0.475C0.25,-0.528 0.313,-0.555 0.371,-0.555C0.429,-0.555 0.479,-0.528 0.471,-0.475L0.436,-0.238C0.428,-0.182 0.365,-0.156 0.307,-0.156C0.253,-0.156 0.2,-0.182 0.207,-0.233L0.242,-0.475Z" style="fill:rgb(88,101,242);fill-rule:nonzero;"/>
        </g>
        <g transform="matrix(491.408,0,188.634,491.408,3105.06,992.475)">
            <path d="M0.013,-0L0.192,-0L0.231,-0.283L0.229,-0.42L0.233,-0.421L0.275,-0.279L0.396,-0L0.577,-0L0.676,-0.708L0.498,-0.708L0.453,-0.387L0.455,-0.265L0.451,-0.264L0.411,-0.406L0.282,-0.708L0.112,-0.708L0.013,-0Z" style="fill:rgb(88,101,242);fill-rule:nonzero;"/>
        </g>
        <g transform="matrix(491.408,0,188.634,491.408,3437.25,992.475)">
            <path d="M-0.01,-0.118C0.044,-0.033 0.149,0.01 0.234,0.01C0.387,0.01 0.507,-0.059 0.533,-0.197C0.566,-0.373 0.446,-0.42 0.323,-0.443C0.269,-0.455 0.233,-0.473 0.238,-0.514C0.242,-0.55 0.28,-0.567 0.325,-0.566C0.366,-0.565 0.413,-0.549 0.443,-0.515L0.573,-0.605C0.512,-0.694 0.432,-0.718 0.346,-0.718C0.216,-0.718 0.088,-0.667 0.061,-0.522C0.036,-0.388 0.136,-0.299 0.247,-0.281C0.304,-0.273 0.366,-0.254 0.358,-0.21C0.351,-0.173 0.309,-0.156 0.261,-0.156C0.208,-0.156 0.149,-0.179 0.118,-0.224L-0.01,-0.118Z" style="fill:rgb(88,101,242);fill-rule:nonzero;"/>
        </g>
    </g>
</svg>
