<?xml version="1.0" encoding="UTF-8"?>
<svg id="Layer_2" data-name="Layer 2" xmlns="http://www.w3.org/2000/svg" viewBox="0 0 537.04 605.23">
  <g id="Layer_1-2" data-name="Layer 1">
    <path class="cls-1" d="M325.95,487.24c.15-.53,.2-1.12,.45-1.59,2.91-5.48,5.1-11.29,7.73-16.9,1.21-2.57,1.95-5.3,2.28-8.1,.74-6.27,1.34-12.54-.3-18.78-.52-1.98-1.23-3.86-2.12-5.68-3.89-8.07-9.72-14.28-17.7-18.43-3.96-2.06-8.17-3.18-12.6-3.51-13.16-.96-26.33-1.17-39.51-.66-5.62,.22-11.22,.84-16.79,1.67-6.68,1-13.35,2-20.04,2.94-8.13,1.14-16.26,2.32-24.42,3.26-7.15,.82-14.29,1.76-21.48,2.37-7.52,.64-15.03,1.16-22.58,1.26-11.77,.16-23.36-1.2-34.83-3.76-4.72-1.05-9.47-1.99-14.22-2.88-5.77-1.07-11.39-2.7-16.96-4.5-4.07-1.31-8.12-2.69-12.15-4.11-8.53-3.02-16.56-7.1-24.21-11.89-6.62-4.16-12.42-9.35-17.45-15.35-5.07-6.04-10.03-12.17-14.4-18.75-7.83-11.79-14.23-24.28-18.1-37.96-2.21-7.81-3.97-15.72-5.08-23.75-.52-3.78-.88-7.6-1.02-11.43-.18-5.06-.63-10.12-.39-15.19,.3-6.4,.69-12.79,1.67-19.15,.94-6.13,2.18-12.17,3.42-18.24,1.53-7.5,4.57-14.36,8.25-20.97,2.96-5.32,6.53-10.26,10.03-15.23,1.89-2.69,4.25-4.98,6.75-7.08,3.98-3.34,7.57-7.07,11.28-10.69,2.1-2.05,4.22-4.07,6.37-6.06,.89-.83,1.89-1.54,3.17-2.57-.2,2.94-.21,5.47-.57,7.94-.43,2.92-.36,5.84-.36,8.77,0,3.49,.09,6.99,.07,10.48-.04,6.09,.35,12.14,1.07,18.18,.35,2.9,.55,5.83,.65,8.75,.49,14.62,4.61,28.14,12.24,40.6,2.71,4.42,5.41,8.84,8.28,13.15,4.77,7.17,10.3,13.67,17.18,18.94,.89,.69,1.75,1.42,2.6,2.15,3.51,3.02,7.2,5.77,11.25,8.05,2.65,1.5,5.19,3.18,7.84,4.66,2.65,1.48,5.32,2.97,8.11,4.16,6.21,2.64,12.46,5.22,18.92,7.23,4.86,1.51,9.8,2.53,14.84,3.1,4.25,.49,8.5,.99,12.73,1.55,6.37,.84,12.77,1.21,19.19,1.23,6.89,.02,13.74-.39,20.52-1.53,5.99-1.01,11.95-2.22,17.88-3.55,8.35-1.86,16.71-3.65,25.17-4.9,6.47-.96,13-1.21,19.54-1.1,1.24,.02,2.48,.07,3.72,.08,7.89,.07,15.75,.6,23.59,1.44,2.59,.28,5.09,.98,7.53,1.82,3.94,1.36,7.85,2.8,11.76,4.21,2.98,1.08,5.8,2.46,8.43,4.24,2.24,1.51,4.51,2.98,6.82,4.39,3.09,1.89,5.86,4.17,8.52,6.62,6.5,5.98,12.3,12.55,16.93,20.1,4.45,7.25,8.05,14.87,9.3,23.38,.72,4.89,1.16,9.79,.65,14.79-.49,4.81-1.04,9.62-1.53,14.43-.24,2.38-.83,4.65-1.75,6.84-1.7,4.05-3.41,8.09-5.15,12.12-1.07,2.49-2.43,4.83-4.06,7-2.37,3.17-4.33,6.58-6.14,10.09-.87,1.7-1.75,3.43-2.86,4.97-4.28,5.96-8.03,12.23-11.68,18.58-1.78,3.1-3.72,6.15-6.34,8.68,0,0,.04,.04,.04,.04Z"/>
    <path class="cls-1" d="M232.11,420.57c3.33-.84,6.41-1.19,9.48-1.6,2.22-.29,4.46-.45,6.69-.62,2.55-.2,5.05-.92,7.63-1.08,1.35-.08,2.69-.29,4.03-.35,5.63-.22,11.24-.82,16.88-.61,9,.33,18.01,.53,26.99,1.29,9.23,.78,16.35,5.3,22.13,12.22,1.51,1.8,2.75,3.85,3.94,5.89,3.12,5.34,4.11,11.14,3.52,17.25-.23,2.34-.05,4.7-.46,7.05-.51,2.91-1.3,5.7-2.49,8.39-1.51,3.4-3.04,6.78-4.56,10.18-1.25,2.78-2.68,5.46-4.26,8.06-2.34,3.86-4.32,7.91-6.22,11.99-3.26,6.98-3.3,6.91-9.41,11.47-8.78,6.55-18.03,12.36-27.71,17.46-8.81,4.64-18.12,7.99-27.88,10.03-.44,.09-.88,.25-1.32,.27-2.67,.15-5.32,.45-7.98,.7-2.57,.24-5.18,.14-7.77,.11-2.7-.03-5.41,0-8.09-.46-.99-.17-2.02-.14-3.03-.2-4.38-.27-8.77-.53-13.15-.81-2.61-.17-5.04-1.15-7.54-1.78-.93-.23-1.58-.85-2.08-1.63-.85-1.33-1.73-2.64-2.47-4.03-.96-1.8-2.03-3.51-3.29-5.11-1.38-1.75-3.16-3.22-3.67-5.57-.11-.5-.58-.97-.96-1.37-2.5-2.6-4.92-5.29-7.93-7.33-.93-.63-1.96-1.09-2.9-1.71-.7-.46-1.84-.11-2.17-1.3-.27-.99-1.46-.63-2.13-1.32-2.77-2.82-6.49-3.93-10.15-5.08-.42-.13-.9-.15-1.34-.11-3.24,.29-6.24-.45-9.08-1.98-1.63-.88-3.47-1.03-5.24-1.21-2.23-.23-4.5-.1-6.75-.12-.81,0-1.71,.13-2.18,.75-.96,1.28-2.29,1.2-3.62,1.38-1.67,.23-3.32,.59-4.97,.97-1.26,.29-2.42,.18-3.62-.31-4.74-1.96-9.18-4.36-12.5-8.38-1.45-1.75-3.11-2.75-5.41-3.02-2.23-.27-4.37-1.07-6.4-2.08-3.23-1.61-6.44-3.23-9.66-4.85-1.83-.93-3.44-2.13-4.67-3.81-.61-.82-1.27-1.55-2.4-1.7-4.22-.56-7.99-2.24-11.39-4.75-1.11-.82-2.23-1.49-3.6-1.74-1.68-.3-3.02-1.41-4.5-2.04-.83,.2-1.07,.9-1.4,1.45-2.21,3.69-3.95,7.58-5.2,11.7-.66,2.17-.67,4.22,.42,6.21,1.39,2.53,1.99,5.21,2.01,8.1,.02,2.6,.84,5.1,1.52,7.6,.35,1.3,.76,2.59,1.22,3.86,1.76,4.81,5.36,7.65,10.05,9.28,.85,.3,1.83,.34,2.57,.8,1.55,.96,2.95,1.53,4.55,.12,.36-.32,1.08-.23,1.63-.35,2.31-.48,4.63-.97,6.94-1.46,1.89-.4,3.79-.63,5.69-.1,.86,.24,1.52,.12,2.09-.59,1.33-1.63,3.12-2.48,5.05-3.22,3.28-1.26,6.56-2.39,10.11-2.47,.85-.02,1.47-.45,2.12-.91,2.94-2.09,6.23-3.04,9.83-3.05,2.25,0,4.39-.36,6.26-1.88,1.05-.86,2.52-1.06,3.86-1.02,1.77,.05,3.35-.32,4.71-1.44,.67-.56,1.43-.6,2.22-.6,3.94-.04,7.88-.27,11.57,1.67,.93,.49,2.19,.49,3.3,.5,4.63,.05,8.82,1.53,12.82,3.72,.91,.5,1.57,1.24,2.3,1.94,1.27,1.22,2.45,2.6,4.43,2.84,.72,.09,1.41,.67,2.05,1.12,3.63,2.55,6.48,5.91,9.46,9.14,.08,.08,.17,.16,.21,.26,1.53,4.04,5.07,6.85,6.59,10.92,.54,1.44,1.6,2.71,2.53,3.98,2.17,2.95,3.49,6.25,4.44,9.77,1.18,4.37,1.85,8.81,2.23,13.3,.15,1.69-.11,3.36-.3,5.04-.85,7.36-3.74,13.85-8.09,19.78-4.44,6.05-9.99,10.63-17.02,13.41-5.03,1.99-10.01,4.06-15.21,5.6-3.69,1.09-7.43,1.69-11.27,2.05-7.34,.67-14.35-.56-21.19-3.1-3.74-1.39-7.11-3.45-9.88-6.33-4.39-4.56-8.35-9.45-11.07-15.25-1-2.14-2.17-4.21-3.32-6.27-1.92-3.45-3.7-6.96-4.79-10.78-.27-.96-.73-1.9-1.22-2.77-.9-1.61-2.15-2.91-3.91-3.58-4.6-1.76-9.27-2.7-14.21-1.5-3.19,.78-5.81,2.39-7.96,4.81-1.48,1.67-2.14,3.7-2.22,5.9-.06,1.8,.07,3.6,.07,5.41,0,1.8,0,3.61-.12,5.4-.06,.88-.34,1.76-.64,2.61-.29,.82-.97,1.2-1.86,1.16-1.76-.09-3.25-.83-4.58-1.95-2.97-2.5-4-5.91-4.37-9.58-.31-3.1,.39-6.08,1.76-8.84,2.46-4.95,5.35-9.65,8.63-14.1,2.55-3.46,5.83-5.9,9.83-7.42,3.82-1.45,7.67-2.57,11.84-2.23,9.95,.8,17.89,5.04,23.31,13.55,2.36,3.71,4.3,7.66,6.03,11.71,1.77,4.14,3.56,8.25,6.13,12.01,3.84,5.63,9.33,8.27,15.76,9.44,3.35,.61,6.69,.67,10.08,.06,2.5-.45,4.8-1.27,6.87-2.67,4.66-3.13,7.8-7.41,9.33-12.84,.5-1.77,.56-3.58,.36-5.36-.23-2.01-.66-4-1.04-5.98-1.15-5.88-4.91-9.78-9.89-12.61-3.67-2.08-7.72-3-11.94-3.32-6.39-.49-12.31,.93-17.88,3.97-2.96,1.62-5.87,3.34-8.81,5.02-.86,.49-1.2,.46-1.65-.32-1.19-2.05-2.53-4-4.09-5.79-.29-.34-.56-.73-.72-1.14-.54-1.4-1.15-2.62-2.98-2.66-.59-.02-1.18-.61-1.74-.97-6.77-4.39-14.18-6.16-22.2-5.49-1.21,.1-2.39,.27-3.66,.03-1.44-.27-2.94,.48-4.06,1.32-2.17,1.63-4.62,2.78-6.88,4.24-2.62,1.7-4.62,3.93-6.33,6.47-.63,.93-1.21,1.9-1.8,2.86-1.12,1.81-1.13,1.87-3.23,1.31-3.4-.91-6.56-2.4-9.48-4.35-4.34-2.9-8.06-6.45-11.28-10.59-1.8-2.31-3.6-4.6-5.25-7.02-3.3-4.86-6.09-9.94-8.21-15.46-2.34-6.12-4.32-12.32-5.68-18.72-1.25-5.85-2.08-11.73-1.8-17.76,.26-5.74,1.65-11.1,4.47-16.11,6.61-11.73,15.25-21.73,25.71-30.18,5.25-4.24,11.28-6.96,17.71-8.89,5.19-1.56,10.51-2.48,15.85-3.3,1.1-.17,2.25-.06,3.37-.09,1.56-.05,3.11,.5,4.7,.09,.48-.12,1.09,.17,1.62,.34,7.62,2.47,15.48,3.95,23.32,5.51,5.19,1.03,10.37,2.09,15.57,3.06,2.87,.54,5.76,1.01,8.7,1.15,2.13,.1,4.26,.31,6.3,1.07,1.05,.39,2.17,.59,3.27,.83,5.3,1.13,10.38,2.96,15.53,4.61,9.34,2.99,18.39,6.74,27.49,10.36,2.93,1.17,5.82,2.41,8.78,3.51,5.29,1.96,10.72,3.44,16.31,4.23,4.83,.68,9.61,.58,14.36-.92,5.63-1.77,9.89-7.82,9.72-13.65-.08-2.63-.47-5.14-1.6-7.54-1.33-2.84-3.25-5.1-6.01-6.66-1.23-.69-2.63-1.18-3.91-2.4Z"/>
    <path class="cls-1" d="M240.28,221.1c-.32-.53-.6-.89-.76-1.29-1.19-2.92-2.59-5.73-4.29-8.38-.45-.71-.76-1.4-.15-2.15,2.69-3.33,4.74-7.06,6.88-10.74,.04-.07,.19-.07,.52-.18,.36,.78,.25,1.66,.37,2.48,.11,.78,.29,1.55,.37,2.32,.48,4.83,.49,9.64-1.07,14.32-.41,1.23-.82,2.49-1.87,3.61Z"/>
    <path class="cls-1" d="M241.93,138.96c.28,.1,.61,.18,.9,.34,1.27,.71,2.53,1.45,3.79,2.18,.85,.49,2.21,.57,2.49,1.46,.32,1.02-1.01,1.56-1.57,2.35-.32,.46-.67,.9-.99,1.36-2.08,2.96-1.56,3.46-4.62,.09-.52-.57-.94-1.25-1.35-1.91-.36-.59-.51-1.26-.32-1.94,.35-1.18,.73-2.35,1.13-3.52,.06-.16,.32-.25,.53-.41Z"/>
    <path class="cls-1" d="M325.91,487.19c-.11,.35-.29,.62-.7,.65l.04,.04c.12-.34,.29-.62,.7-.64,0,0-.04-.04-.04-.04Z"/>
    <path class="cls-1" d="M325.21,487.84c-.02,.07-.05,.14-.07,.21,.04-.06,.07-.12,.11-.18,0,0-.04-.04-.04-.04Z"/>
    <path class="cls-1" d="M515.55,294.31c-.5-10.01-1.4-20-1.69-30.02-.02-.68-.06-1.35-.12-2.02-.61-7.07-1.24-14.13-1.84-21.2-.31-3.59-.53-7.19-.86-10.77-.34-3.7-.85-7.38-1.12-11.08-.27-3.72-.91-7.37-1.51-11.04-.25-1.49-.91-2.78-1.89-3.9-1.94-2.2-3.98-4.29-6.41-5.97-3.55-2.45-7.47-4.16-11.38-5.91-8.43-3.76-16.88-7.49-25.54-10.7-5.23-1.93-9.98-4.67-14.35-8.11-.71-.56-1.47-1.05-2.21-1.55-7.48-5.03-14.96-10.05-22.44-15.08-2.72-1.83-5.31-3.83-7.64-6.13-2.42-2.39-5.04-4.5-7.81-6.43-1.11-.77-2.19-1.59-3.25-2.43-5.91-4.74-12.31-8.71-19.15-11.96-1.81-.86-3.59-1.12-5.5-.19-1.72,.83-3.53,1.46-5.31,2.19-10.42,4.25-20.83,8.56-31.64,11.77-13.6,4.04-27.06,8.49-40.44,13.19-9.89,3.47-19.97,6.26-30.17,8.63-1.57,.36-3.12,.45-4.69,.23-4.86-.7-9.34-2.43-13.49-5.04-1.89-1.19-3.85-2.28-6.03-3.56-1.73,5.36-2.6,10.52-1.97,15.83,.65,5.47,1.61,10.91,2.24,16.39,.35,3.01,.87,6.05,.59,9.09-.32,3.47-.44,6.97-1.12,10.41-1.07,5.34-2.59,10.53-5.57,15.12-1.14,1.76-1.42,3.41-1.04,5.4,.84,4.44,1.08,8.9,.73,13.44-.72,9.42-3.51,18.15-8.77,25.96-11.15,16.57-26.56,25.24-46.83,24.33-8.3-.37-15.93-3.08-22.7-7.84-14.06-9.88-20.49-23.87-21.03-40.71-.13-4.23,.51-8.52,1.46-12.72,2.73-12.09,8.83-22.17,18.31-30.04,11.45-9.51,24.6-13.8,39.57-11.57,10.78,1.61,19.79,6.52,27.17,14.5,.61,.66,1.19,1.36,1.83,1.99,.34,.34,.81,.4,1.17-.02,.29-.34,.54-.72,.78-1.1,2.59-4.09,3.97-8.58,4.16-13.4,.23-5.85,.31-11.71,.44-17.56,.07-3.38,.2-6.74,.76-10.09,.56-3.35,1.42-6.62,2.66-9.75,.84-2.12,.92-3.78-1.07-5.29-.87-.66-1.5-1.67-2.14-2.59-1.37-1.97-1.76-4.09-.82-6.4,.42-1.04,.61-2.17,.96-3.24,.2-.61,.08-1.09-.32-1.55-.45-.5-.95-.97-1.35-1.51-3.51-4.66-5.14-9.74-3.34-15.53,1.53-4.94,3.12-9.87,4.69-14.8,.1-.32,.18-.67,.36-.95,1.63-2.48,2.39-5.33,3.47-8.04,2.05-5.13,3.59-10.42,4.63-15.85,.24-1.27,.3-2.38-.24-3.58-1.51-3.33-1.51-6.76-.48-10.23,.17-.58,.72-1.18,.02-1.97-2.79,.27-5.72,.36-8.57,.87-5.88,1.06-11.82,1.51-17.74,2.19-.45,.05-.9,.04-1.35,.02-1.89-.11-2.47-.66-2.81-2.65-.08-.44-.06-.91-.19-1.33-2.2-7-5.02-13.75-8.45-20.23-.66-1.25-.98-1.4-2.45-1.08-6.93,1.5-13.87,2.92-20.77,4.55-8.87,2.09-17.74,4.21-26.54,6.59-7.93,2.14-15.78,4.59-23.62,7.03-3.97,1.24-7.87,2.73-11.77,4.18-2.53,.95-4.96,2.16-7.51,3.03-1.5,.51-2.47,1.37-3.28,2.68-3.33,5.37-6.16,11-9.01,16.63-1.32,2.61-2.59,5.26-4.04,7.8-3.9,6.85-7.87,13.66-11.85,20.47-8.82,15.11-16.22,30.9-22.42,47.26-3.6,9.48-6.91,19.05-8.81,29.05-.8,4.21-1.46,8.45-1.43,12.73,.02,2.7,.02,5.39-.07,8.09-.16,4.61-.11,9.21,.53,13.81,.74,5.35,.92,10.76,1.98,16.07,1.55,7.79,4.04,15.19,7.93,22.16,3.02,5.42,6.47,10.57,9.67,15.87,2.69,4.45,5.89,8.51,9.43,12.33,2.99,3.24,6.36,6.05,9.67,8.94,4.35,3.79,8.96,7.19,14,9.99,1.77,.98,3.5,2.05,5.23,3.11,2.98,1.83,6.1,3.4,9.33,4.74,3.33,1.38,6.65,2.78,10.03,4.02,7.09,2.61,14.26,4.88,21.86,5.56,4.03,.36,8.04,.93,12.06,1.45,4.91,.64,9.83,1.21,14.8,1.19,3.38-.01,6.76-.07,10.14-.01,3.85,.07,7.65-.45,11.44-.94,7.24-.94,14.38-2.53,21.51-4.12,9.87-2.21,19.75-4.28,29.83-5.38,5.04-.55,10.1-.59,15.14-.92,6.27-.41,12.59-.3,18.9,.27,3.84,.35,7.59,.92,11.29,1.9,2.94,.78,5.84,1.72,8.82,2.31,6,1.19,11.83,2.79,17.11,6,.77,.47,1.62,.79,2.43,1.19,6.64,3.26,12.32,7.84,17.66,12.88,1.96,1.85,3.88,3.78,5.62,5.84,1.05,1.24,2.17,1.48,3.58,1.09,2.38-.67,4.74-1.41,7.14-2.04,11.21-2.95,22.29-6.33,33.04-10.72,3.14-1.29,5.94-.57,8.05,2.32,1.67,2.3,3.62,4.29,5.57,6.33,.47,.49,.91,1.01,1.29,1.56,1.49,2.11,1.37,3.44-.43,5.4-1.77,1.94-3.91,3.39-6.14,4.73-7.15,4.32-14.69,7.86-22.53,10.74-2.22,.81-4.41,1.7-6.62,2.55-.77,.3-.99,.87-.81,1.61,.76,3.06,1.52,6.11,2.68,9.06,3.08,7.8,7.27,14.99,11.89,21.95,.5,.75,1.1,1.43,1.58,2.19,.72,1.12,1.66,1.44,2.89,1,2.23-.79,4.49-1.48,6.68-2.35,11.29-4.5,22.55-9.09,33.85-13.57,13.1-5.19,25.94-10.93,38.14-18.01,6.92-4.01,13.77-8.13,20.66-12.19,4.47-2.63,8.87-5.36,13.07-8.4,3.29-2.38,6.52-4.83,9.46-7.63,.85-.81,1.44-1.67,1.53-2.89,.42-5.84,1.14-11.67,1.28-17.51,.24-10.13,.23-20.26-.28-30.41Zm-153.78-2.1c-6.91,1.46-13.91,1.52-20.75-.42-20.43-5.8-32.55-21.21-35.13-39.54-2.01-14.32,1.65-27.53,10.14-39.25,8.03-11.08,18.7-18.37,32.08-21.59,2.97-.71,5.97-1.06,9.02-1.15,7.18-.21,14.13,.77,20.77,3.66,9.76,4.25,17.15,11.07,22.24,20.38,4.04,7.36,5.98,15.26,5.79,23.2,.45,23.4-16.04,48.78-44.16,54.72Z"/>
    <path class="cls-1" d="M535.67,209.75c-2.55-15.85-7.76-30.76-15.66-44.71-5.85-10.32-12.86-19.84-20.57-28.85-4.91-5.74-9.62-11.63-13.94-17.84-2.06-2.96-4.38-5.73-6.52-8.63-1.01-1.37-2.31-2.1-3.94-2.34-.78-.11-1.58-.22-2.35-.18-5.17,.3-10.04-1.06-14.88-2.6-7.38-2.35-12.61-7.2-16.16-13.97-2.41-4.59-4.33-9.41-6.18-14.25-2.23-5.81-5.02-11.32-8.68-16.37-2.33-3.21-5.22-5.81-8.47-8.01-.63,.61-.4,1.18-.32,1.68,.53,3.22,1.17,6.42,1.64,9.65,.56,3.9,1.04,7.82,.9,11.77-.02,.67,.07,1.37-.36,1.95-.12,.16-.36,.31-.56,.32-.19,0-.44-.13-.58-.28-.49-.54-.48-1.24-.54-1.91-.65-7.07-1.8-14.06-3.33-20.99-.85-3.84-1.99-7.62-3.01-11.43-.29-1.09-.65-2.16-.91-3.25-.17-.69-.05-1.35,.67-1.73,.53-.28,1.29,.04,1.63,.79,.56,1.23,1.11,2.47,1.53,3.75,1.15,3.55,3.18,6.4,6.21,8.61,3.1,2.27,5.98,4.79,8.2,7.98,2.2,3.14,4.33,6.32,6.02,9.77,1.79,3.64,3.39,7.37,4.8,11.17,1.41,3.81,2.97,7.55,5,11.07,3.68,6.39,9.13,10.44,16.35,12.06,2.09,.47,4.19,.85,6.3,1.22,1.68,.3,3.37,.22,5.06,.07,.68-.06,.86-.6,.43-1.19-.2-.27-.42-.53-.64-.79-4.37-5.16-8.73-10.32-13.12-15.47-5.12-6-10.22-12.02-14.41-18.73-.6-.95-1.33-1.82-1.97-2.74-2.87-4.18-5.89-8.26-8.54-12.58-2.48-4.03-4.91-8.04-7.86-11.78-3.36-4.27-7.65-6.57-12.8-7.45-2.87-.49-5.82-.55-8.74-.77-1.57-.12-3.15-.15-4.72-.27-4.6-.34-9.19-.8-13.8-1.04-3.72-.2-7.39-.74-11.02-1.5-1.31-.28-2.62-.71-3.83-1.29-5.88-2.84-11.73-5.71-16.71-10.07-2.62-2.3-5.57-4.21-8.11-6.62-2.12-2.02-4.31-3.97-6.49-5.93-1.35-1.22-2.9-2.13-4.53-2.92-3.08-1.47-6.34-2.37-9.71-2.75-3.47-.4-7.01-.7-10.43,.14-7.57,1.85-14.32,5.32-20.05,10.69-3.48,3.26-6.24,7.1-9.03,10.92-6.42,8.83-11.85,18.35-18.92,26.74-4.21,5-7.56,10.65-11.06,16.17-3.36,5.31-5.66,10.99-6.76,17.17-.63,3.56-1.69,7-3.06,10.34-.73,1.77-1.44,3.55-1.99,5.38-.62,2.06-1.4,4.04-2.43,5.92-.38,.69-.74,1.4-.99,2.14-1.4,4.04-2.8,8.08-4.14,12.14-2.14,6.48-.56,12.08,4.52,16.49,3.05,2.65,6.49,4.89,10.58,5.75,1.81,.38,2.98,1.39,3.62,3.16,.61,1.71,1.72,3.16,2.78,4.62,2.34,3.22,5.55,4.84,9.49,5.07,2.37,.14,4.74,.08,7.08-.32,4.77-.83,9.52-1.69,14.17-3.08,3.88-1.15,7.81-2.15,11.75-3.08,4.83-1.15,9.53-2.68,14.16-4.45,10.2-3.9,20.4-7.8,30.84-11.03,4.5-1.39,8.56-3.47,11.16-7.68,.47-.76,1.32-.98,1.66-.6,.44,.49,.36,1.04,.12,1.57-.55,1.24-1.22,2.4-2.15,3.41-1.71,1.86-3.72,3.29-6.03,4.25-2.08,.87-4.17,1.7-6.31,2.4-8.45,2.78-16.75,6-25.03,9.24-4.61,1.81-9.21,3.67-14,4.95-5.65,1.51-11.32,2.97-17,4.39-3.38,.85-6.78,1.66-10.2,2.33-3.2,.62-6.44,1.11-9.73,.9-4.43-.28-8.38-1.64-11.38-5.09-.59-.68-1.14-1.39-1.71-2.09-1.02-1.23-1.63-1.22-2.57,.19-.81,1.22-1.54,2.49-2.22,3.79-.55,1.05-.41,1.55,.66,2.25,1.51,.99,3.12,1.82,4.58,2.87,2.61,1.85,5.53,3.04,8.5,4.1,2.68,.95,5.49,1.36,8.31,.65,8.94-2.27,17.92-4.42,26.65-7.45,15.95-5.53,31.95-10.92,48.18-15.59,2.05-.59,4.1-1.24,6.1-1.99,8.43-3.17,16.82-6.44,25.26-9.59,9.05-3.37,17.37-7.99,24.97-13.95,4.68-3.67,8.59-7.95,11.16-13.36,1.4-2.95,2.97-5.82,4.02-8.93,.14-.42,.36-.83,.61-1.2,.1-.15,.37-.22,.58-.26,.46-.09,.55,.29,.65,.6,.07,.21,.03,.45,.06,.67,.19,1.63,.29,1.74,1.72,1.74,2.72-.01,5.37-.45,7.96-1.31,1.71-.57,3.47-.98,5.21-1.4,.28-.07,.77,.05,.92,.25,.27,.39,.08,.83-.23,1.21-.81,.99-1.86,1.64-2.99,2.17-4.21,2-8.46,3.81-13.3,2.52-.65-.17-1.06,.26-1.32,.79-.76,1.51-1.51,3.02-2.24,4.55-1.23,2.55-2.83,4.86-4.57,7.08-1.03,1.32-2.41,2.34-3.13,3.95-.25,.55-.95,.98-1.54,1.27-1.53,.75-2.83,1.84-4.16,2.87-3.74,2.92-7.74,5.43-11.97,7.59-1,.51-2.07,.91-2.81,1.82,.14,.18,.24,.4,.41,.53,.27,.2,.58,.35,.88,.48,6.69,2.83,12.78,6.68,18.47,11.13,4.36,3.41,8.84,6.62,13.48,9.6,3.33,2.14,6.25,4.79,9.25,7.32,2.49,2.1,4.83,4.39,7.49,6.29,4.86,3.47,9.89,6.69,15.06,9.69,2.24,1.3,4.54,2.5,7.02,3.31,9.22,3.02,18.15,6.74,26.92,10.86,6.55,3.07,12.71,6.81,18.34,11.37,5.13,4.15,8.21,9.54,8.97,16.11,.56,4.8,.91,9.63,1.25,14.46,.53,7.64,1.5,15.22,2.58,22.8,1.36,9.46,2.35,18.98,3.51,28.47,.05,.42,0,.92,.87,.94,1.06-1.71,2.08-3.58,3.32-5.3,3.2-4.48,5.03-9.57,6.41-14.81,1.93-7.3,3.17-14.76,3.54-22.31,.46-9.46,.39-18.91-1.12-28.31ZM243.94,114.77c-.24,.54-.67,.87-1.29,.84-.48-.02-.94-.3-1.05-.69-.48-1.75-.51-3.48,.51-5.1,.2-.32,.88-.23,1.09,.15,.66,1.19,.9,2.48,.93,3.97-.04,.18-.06,.53-.18,.82Zm34.59,12.52c-1.37,.24-2.37-.9-2.06-2.3,.1-.45,.35-.92,.83-.95,2.05-.14,4.07-1.09,6.47-.34-1.48,1.84-3.01,3.21-5.23,3.59Zm70.92-41.11c-.23,.24-.48,.47-.75,.66-1.26,.89-1.89,2.18-2.37,3.6-.72,2.13-1.46,4.26-2.24,6.37-.75,2.01-1.77,3.89-3.06,5.62-1.37,1.84-3.07,3.3-5.12,4.31-4.3,2.11-8.91,3.12-13.62,3.64-2.7,.3-5.4-.12-7.98-1.01-1-.35-1.67-.21-2.34,.62-2.11,2.61-4.81,4.38-7.99,5.43-.52,.17-1.08,.26-1.64,.32-.18,.02-.45-.14-.55-.3-.19-.32-.06-.68,.24-.86,.57-.36,1.17-.67,1.77-.98,3.65-1.85,6.27-4.71,8.19-8.26,.8-1.49,1.64-2.96,2.45-4.44,4.13-7.51,10.55-12.19,18.54-14.8,3.43-1.12,7.03-1.53,10.67-1.32,1.79,.12,3.59,.22,5.38,.36,.44,.03,.71,.75,.42,1.05Z"/>
  </g>
</svg>